<svg xmlns="http://www.w3.org/2000/svg" xmlns:xlink="http://www.w3.org/1999/xlink" width="500" zoomAndPan="magnify" viewBox="0 0 375 374.999991" height="500" preserveAspectRatio="xMidYMid meet" version="1.0"><defs><filter x="0%" y="0%" width="100%" height="100%" id="cc071cf606"><feColorMatrix values="0 0 0 0 1 0 0 0 0 1 0 0 0 0 1 0 0 0 1 0" color-interpolation-filters="sRGB"/></filter><clipPath id="300f5c053f"><path d="M 28 49 L 347 49 L 347 337.527344 L 28 337.527344 Z M 28 49 " clip-rule="nonzero"/></clipPath><clipPath id="989d22414e"><path d="M 169 14.277344 L 212 14.277344 L 212 94 L 169 94 Z M 169 14.277344 " clip-rule="nonzero"/></clipPath><mask id="99bd0416db"><g filter="url(#cc071cf606)"><rect x="-37.5" width="450" fill="#000000" y="-37.499999" height="449.999989" fill-opacity="0.75"/></g></mask><clipPath id="2987de1227"><path d="M 0.441406 0.277344 L 42.921875 0.277344 L 42.921875 79.601562 L 0.441406 79.601562 Z M 0.441406 0.277344 " clip-rule="nonzero"/></clipPath><clipPath id="ab709c5799"><rect x="0" width="43" y="0" height="80"/></clipPath></defs><g clip-path="url(#300f5c053f)"><path fill="#80edea" d="M 289.863281 137.890625 C 289.828125 137.890625 289.792969 137.890625 289.757812 137.890625 C 285.613281 137.898438 282.859375 133.6875 284.605469 129.925781 C 287.878906 122.890625 289.75 115.082031 289.859375 106.835938 C 290.265625 76.011719 265.351562 50.105469 234.53125 49.371094 C 217.59375 48.96875 202.289062 55.996094 191.644531 67.425781 C 189.386719 69.851562 185.605469 69.851562 183.347656 67.425781 C 172.707031 55.996094 157.402344 48.96875 140.460938 49.371094 C 109.644531 50.105469 84.726562 76.011719 85.132812 106.835938 C 85.246094 115.082031 87.117188 122.890625 90.390625 129.925781 C 92.136719 133.6875 89.382812 137.898438 85.238281 137.890625 C 85.203125 137.890625 85.167969 137.890625 85.132812 137.890625 C 53.117188 137.890625 27.300781 164.40625 28.445312 196.667969 C 29.402344 223.84375 50.023438 246.789062 76.929688 250.730469 C 79.386719 251.089844 81.816406 251.285156 84.214844 251.324219 C 88.136719 251.386719 90.792969 255.351562 89.308594 258.984375 C 86.726562 265.316406 85.253906 272.222656 85.132812 279.457031 C 84.640625 310.335938 109.558594 336.328125 140.429688 337.082031 C 157.382812 337.496094 172.699219 330.464844 183.34375 319.027344 C 185.601562 316.601562 189.382812 316.601562 191.640625 319.027344 C 202.292969 330.464844 217.605469 337.496094 234.558594 337.082031 C 265.429688 336.328125 290.347656 310.335938 289.851562 279.457031 C 289.738281 272.222656 288.265625 265.316406 285.679688 258.984375 C 284.195312 255.351562 286.851562 251.386719 290.773438 251.324219 C 293.167969 251.285156 295.601562 251.089844 298.058594 250.730469 C 324.964844 246.789062 345.582031 223.84375 346.542969 196.667969 C 347.6875 164.410156 321.871094 137.894531 289.863281 137.894531 Z M 289.863281 137.890625 " fill-opacity="1" fill-rule="nonzero"/></g><g clip-path="url(#989d22414e)"><g mask="url(#99bd0416db)"><g transform="matrix(1, 0, 0, 1, 169, 14)"><g clip-path="url(#ab709c5799)"><g clip-path="url(#2987de1227)"><path fill="#f2a0b5" d="M 8.433594 75.441406 L 14.824219 75.363281 L 20.75 79.332031 L 27.578125 75.449219 L 33.609375 78.546875 L 34.042969 78.554688 L 42.410156 5.855469 L 38.886719 8.003906 L 32.949219 4.171875 L 26.558594 4.25 L 20.628906 0.28125 L 13.804688 4.164062 L 9.320312 1.855469 L 0.917969 74.84375 L 5.527344 72.820312 Z M 8.433594 75.441406 " fill-opacity="1" fill-rule="nonzero"/></g></g></g></g></g></svg>